<svg xmlns="http://www.w3.org/2000/svg" viewBox="0 0 1000 990"><mask id="mask"><path d="M1000,0H0V718.31H179.2c38.38,142.38,167.45,247.1,320.8,247.1s282.42-104.72,320.8-247.1H1000Z" fill="white"></path></mask><g mask="url(#mask)"><circle cx="500" cy="630.1601" r="332.441995" fill="#85c5e5"></circle><g transform="scale(1)" style="transform-origin: center center;"><path d="M225.35,498c183.42,77.95,371.14,79.06,555.94,0,17.53-7.5,17.43-139.87,0-133.81-180.47,62.83-371.33,63.5-555.94,0C203.39,356.6,205.53,489.53,225.35,498Z" fill="#592d3d" stroke="#592d3d" stroke-miterlimit="10" stroke-width="12px"></path></g><path d="M610,758.72c90.76,0,72,114.24,72.87,241.28H610Z" fill="#A56941"></path><path d="M632.74,831.87,610,870l11.38,130h31.76C653.91,819.73,632.74,831.87,632.74,831.87Z" fill="#8D5638"></path><path d="M233.25,500c0-147.32,119.43-266.75,266.75-266.75S766.75,352.68,766.75,500A266.22,266.22,0,0,1,668.1,707.12q-8.21,6.68-16.94,12.69C591,758,515,758,446.39,751.89c-6.66-1-13.3-2.26-19.89-3.71-26.33-5.8-51.82-14.75-75.37-27.8Q342.4,715,334.2,708.76a199.59,199.59,0,0,1-15.8-13.38q-7.14-6.63-13.79-13.78A265.86,265.86,0,0,1,233.25,500Z" fill="#A56941"></path><path d="M269.61,634.48c.7,1.2,1.39,2.4,2.11,3.58.43.72.88,1.42,1.33,2.14.66,1.07,1.32,2.14,2,3.19.48.76,1,1.5,1.46,2.24.66,1,1.32,2,2,3,.51.76,1,1.52,1.56,2.28.66,1,1.32,1.92,2,2.88.54.77,1.1,1.53,1.65,2.3s1.34,1.85,2,2.77,1.15,1.53,1.73,2.29,1.37,1.8,2.07,2.7,1.19,1.51,1.79,2.26,1.41,1.76,2.12,2.63,1.23,1.49,1.85,2.23,1.44,1.72,2.17,2.57,1.27,1.47,1.91,2.2l2.22,2.5c.65.73,1.31,1.44,2,2.16.86.94,1.73,1.87,2.6,2.79l1.21,1.28c1.29,1.34,2.59,2.68,3.91,4l.26.27c1.29,1.28,2.6,2.55,3.91,3.81l1.58,1.5c.95.89,1.9,1.78,2.86,2.66l1.16,1.06c1,.94,2.09,1.86,3.14,2.78q4.9,4.27,10,8.19,8.19,6.24,16.93,11.62c23.55,13,49,22,75.37,27.8,6.59,1.45,13.23,2.7,19.89,3.71,42.1,3.75,87,5.18,129.28-3.08C508.45,729,185.59,612.74,388.8,257.48h0c-2.72,1.25-5.4,2.54-8.06,3.88l-.59.29c-1.22.61-2.44,1.24-3.65,1.88l-1,.53c-3.76,2-7.48,4.07-11.13,6.23l-.9.53c-1.16.69-2.31,1.39-3.46,2.1l-.87.54q-5.36,3.35-10.55,6.93l-1.08.75c-1.09.76-2.16,1.52-3.23,2.29l-.66.47q-3.27,2.39-6.46,4.84l-.62.48c-1,.78-2,1.58-3,2.39l-1.17.94c-1,.81-2,1.62-3,2.45l0,0c-2.11,1.75-4.19,3.55-6.24,5.37l-1.14,1-2.69,2.45L318,305q-4.28,4-8.37,8.17l-1.38,1.41c-.79.82-1.58,1.64-2.36,2.47-.46.49-.92,1-1.37,1.48q-2.06,2.2-4.06,4.46c-.45.51-.91,1-1.36,1.54-.71.81-1.41,1.63-2.11,2.45l-1.51,1.79c-.68.81-1.36,1.62-2,2.44-.54.66-1.08,1.33-1.61,2-1.07,1.33-2.12,2.66-3.16,4-.54.7-1.08,1.4-1.61,2.11s-1.2,1.59-1.79,2.4-1.07,1.45-1.59,2.18-1.13,1.55-1.68,2.33q-1.42,2-2.8,4.05c-.5.73-1,1.48-1.49,2.22s-1.1,1.66-1.64,2.5l-1.49,2.31-1.68,2.71c-.43.69-.86,1.38-1.28,2.07-.89,1.46-1.75,2.93-2.61,4.4l-1.22,2.16c-.54.95-1.08,1.91-1.61,2.87-.4.73-.8,1.46-1.19,2.19-.64,1.19-1.27,2.39-1.9,3.59l-1.2,2.34c-.64,1.28-1.28,2.55-1.91,3.84-.33.69-.67,1.39-1,2.09-.52,1.09-1,2.19-1.53,3.29-.31.66-.61,1.32-.91,2q-1.11,2.47-2.17,5c-.22.52-.43,1.05-.65,1.57-.53,1.27-1.05,2.54-1.56,3.82-.27.67-.53,1.34-.79,2-.5,1.26-1,2.53-1.45,3.8-.21.55-.42,1.1-.62,1.65q-.94,2.63-1.85,5.26l-.56,1.7q-.66,2-1.29,4l-.6,1.91c-.47,1.54-.93,3.08-1.37,4.63-.1.33-.2.66-.29,1q-.78,2.76-1.5,5.54c-.16.59-.3,1.19-.45,1.78-.35,1.39-.69,2.78-1,4.18l-.42,1.75c-.43,1.9-.85,3.8-1.24,5.71l-.15.77q-.51,2.55-1,5.1c-.11.61-.21,1.21-.32,1.82-.26,1.49-.51,3-.74,4.5-.08.51-.17,1-.24,1.52-.3,1.95-.57,3.91-.83,5.88l-.15,1.3c-.2,1.59-.38,3.19-.55,4.79-.06.6-.13,1.2-.19,1.81-.16,1.68-.31,3.37-.45,5.06,0,.35-.06.69-.08,1q-.22,3-.39,6.05c0,.53,0,1.07-.07,1.6q-.1,2.36-.18,4.71c0,.59,0,1.18,0,1.77,0,2.05-.08,4.11-.08,6.17,0,0,0,.07,0,.1,0,2.22,0,4.42.08,6.62,0,.76.06,1.52.08,2.28.05,1.47.1,2.94.17,4.41,0,.89.11,1.77.16,2.66.08,1.33.15,2.66.25,4,.07,1,.16,1.89.24,2.83.11,1.26.21,2.52.34,3.77.09,1,.21,1.94.31,2.91.14,1.21.27,2.43.42,3.64.12,1,.26,2,.39,2.95.16,1.18.32,2.37.5,3.55.15,1,.31,2,.47,3,.18,1.16.37,2.33.57,3.49.18,1,.36,2,.55,3,.21,1.15.43,2.3.65,3.44s.41,2,.62,3c.24,1.14.48,2.27.74,3.4s.44,2,.68,2.93c.26,1.13.54,2.25.82,3.36s.49,1.95.74,2.91c.3,1.12.6,2.23.91,3.34.26,1,.53,1.92.81,2.87.32,1.11.65,2.21,1,3.31s.58,1.89.88,2.84.7,2.19,1.06,3.28.62,1.87.94,2.8c.38,1.09.76,2.18,1.15,3.27.33.91.65,1.83,1,2.74l1.24,3.27c.35.89.69,1.79,1,2.68.44,1.09.89,2.19,1.34,3.28.36.86.71,1.73,1.08,2.59.47,1.12,1,2.22,1.45,3.33.37.82.73,1.65,1.1,2.47.52,1.16,1.07,2.3,1.6,3.44l1.08,2.3c.61,1.26,1.24,2.5,1.87,3.75.32.63.62,1.27.95,1.9q2.88,5.61,6,11.07C268.88,633.26,269.25,633.87,269.61,634.48Z" fill="#8D5638"></path><path d="M233.25,500c0-147.32,119.43-266.75,266.75-266.75S766.75,352.68,766.75,500A266.22,266.22,0,0,1,668.1,707.12q-8.21,6.68-16.94,12.69C591,758,515,758,446.39,751.89c-6.66-1-13.3-2.26-19.89-3.71-26.33-5.8-51.82-14.75-75.37-27.8Q342.4,715,334.2,708.76a199.59,199.59,0,0,1-15.8-13.38q-7.14-6.63-13.79-13.78A265.86,265.86,0,0,1,233.25,500Z" fill="none" stroke="#592d3d" stroke-miterlimit="10" stroke-width="12px"></path><path d="M386.12,758.72c-90.77,0-72,114.24-72.87,241.28h72.87Z" fill="#A56941"></path><path d="M367.23,831.87,390,870l-11.39,130H346.88C346.07,819.73,367.23,831.87,367.23,831.87Z" fill="#8D5638"></path><path d="M619.47,1070H380.53a13.28,13.28,0,0,1-13.27-13.28V772a13.28,13.28,0,0,1,13.27-13.28H613.76c13.09,0,19,7.66,19,19.88v278.08A13.28,13.28,0,0,1,619.47,1070Z" fill="#A56941"></path><path d="M629.05,766.62a19.33,19.33,0,0,1-2.51-4,17.25,17.25,0,0,0-8.28-3.51,28.88,28.88,0,0,0-4.5-.34H380.53A13.28,13.28,0,0,0,367.26,772c29,10.42,83.29,16.24,132.74,16.24C563.06,788.24,604.38,778.89,629.05,766.62Z" fill="#8D5638"></path><path d="M610,758.72c90.76,0,72,114.24,72.87,241.28H632.74" fill="none" stroke="#592d3d" stroke-linecap="square" stroke-miterlimit="10" stroke-width="12px"></path><path d="M386.12,758.72c-90.77,0-72,114.24-72.87,241.28h50.07" fill="none" stroke="#592d3d" stroke-linecap="square" stroke-miterlimit="10" stroke-width="12px"></path><path d="M380.53,758.82l233.23-.1" fill="none" stroke="#592d3d" stroke-miterlimit="10" stroke-width="12px"></path><path d="M380.53,1070H497.15C388,1070,396.24,838.82,367.26,838.82v217.86A13.28,13.28,0,0,0,380.53,1070Z" fill="#8D5638"></path><path d="M361.26,860.85c-.19-3.67-.11-7.34.05-11s.47-7.35.86-11c.2-1.84.4-3.67.65-5.51s.49-3.67.85-5.51a44.18,44.18,0,0,1,3.59-11,44.18,44.18,0,0,1,3.59,11c.36,1.84.62,3.67.85,5.51s.45,3.67.65,5.51c.38,3.67.68,7.34.85,11s.25,7.34.06,11Z" fill="#592d3d"></path><path d="M632.74,870v8c.26,34,.26,69,0,102.75,0,2.87,0,5.72,0,8.53v67.41A13.28,13.28,0,0,1,619.47,1070H380.53a13.28,13.28,0,0,1-13.27-13.28V998.52c0-2.51,0-5.07,0-7.65-.25-34.87-.25-69.87,0-105.3V860.85" fill="none" stroke="#592d3d" stroke-miterlimit="10" stroke-width="12px"></path><path d="M626.74,870c-.19-4.17-.1-8.35.06-12.53s.47-8.35.85-12.53c.2-2.09.41-4.18.65-6.27s.49-4.17.85-6.26a55.09,55.09,0,0,1,3.59-12.53,55.09,55.09,0,0,1,3.59,12.53c.36,2.09.62,4.18.85,6.26s.45,4.18.65,6.27c.38,4.18.69,8.35.85,12.53s.25,8.36.06,12.53Z" fill="#592d3d"></path><path d="M570.68,842.45C570.9,833,582.9,829,588.9,835a10.61,10.61,0,1,1-15.16,14.85A10.4,10.4,0,0,1,570.68,842.45Z" fill="#592d3d"></path><path d="M408.11,842.15C407.9,834,416.9,830,422.9,833c8,3,8,14,0,19-4,2-8,0-11.75-2.48A10.39,10.39,0,0,1,408.11,842.15Z" fill="#592d3d"></path><path d="M500,831.77a27.13,27.13,0,0,1,1.5,5.84,42.47,42.47,0,0,1,.49,5.84l.3,11.69c.09,3.89.21,7.79.25,11.69l.17,11.67c.23,15.57.22,31.16.28,46.74s.18,31.16,0,46.74c-.09,7.79-.3,15.58-.53,23.37-.1,3.89-.29,7.79-.67,11.68a92.5,92.5,0,0,1-1.77,11.69,92.5,92.5,0,0,1-1.77-11.69c-.38-3.89-.57-7.79-.67-11.68-.23-7.79-.44-15.58-.53-23.37-.2-15.58,0-31.16,0-46.74s0-31.15.18-46.73l.17-11.7.33-11.68.33-11.68a44.11,44.11,0,0,1,.5-5.84A27.13,27.13,0,0,1,500,831.77Z" fill="#8D5638"></path><path d="M425.22,883a18.51,18.51,0,0,1,4.67-1.5,29.75,29.75,0,0,1,4.68-.5l9.35-.33,18.7-.41c12.46-.19,24.91-.24,37.38-.27s24.93-.16,37.39,0c6.23.09,12.46.3,18.7.53,3.11.11,6.23.3,9.34.67a61.34,61.34,0,0,1,9.35,1.78,59.17,59.17,0,0,1-9.35,1.77c-3.11.38-6.23.57-9.34.67-6.24.23-12.47.43-18.7.52-12.46.19-24.92,0-37.39,0s-24.93,0-37.4-.15c-6.23-.06-12.46-.26-18.68-.5l-9.35-.34a29.5,29.5,0,0,1-4.67-.5A18.45,18.45,0,0,1,425.22,883Z" fill="#8D5638"></path><path d="M442.41,914.38a12.51,12.51,0,0,1,3.74-1.11,18.35,18.35,0,0,1,3.62-.15c2.39.1,4.78.16,7.17.21,4.78.11,9.56.15,14.34.17,9.63,0,19.09.08,28.76-.21s19.26-.43,28.88-.39c4.81,0,9.62.13,14.42.24a70.37,70.37,0,0,1,7.23.47,38.17,38.17,0,0,1,7.27,1.53,36.56,36.56,0,0,1-7.16,2,61.08,61.08,0,0,1-7.21.86c-4.82.35-9.64.65-14.45.82-9.64.36-19.27.32-28.88.45-4.81,0-9.61.22-14.48.1s-9.69-.13-14.52-.31-9.68-.58-14.5-1.08c-2.42-.27-4.82-.57-7.23-.9a16.82,16.82,0,0,1-3.57-.84A11.51,11.51,0,0,1,442.41,914.38Z" fill="#8D5638"></path><path d="M438.93,949.87a13.07,13.07,0,0,1,3.82-1.5,19.13,19.13,0,0,1,3.82-.49l7.63-.32c5.09-.18,10.19-.33,15.28-.41C479.66,947,489.84,947,500,947s20.36-.17,30.54,0c5.09.09,10.18.3,15.27.53a72.73,72.73,0,0,1,7.63.66A41.2,41.2,0,0,1,561.1,950a41.25,41.25,0,0,1-7.63,1.77,70.34,70.34,0,0,1-7.64.67c-5.09.23-10.18.44-15.27.53-10.18.2-20.37.06-30.55,0s-20.36-.06-30.54-.25c-5.09-.1-10.19-.28-15.28-.49l-7.63-.37a19.33,19.33,0,0,1-3.82-.5A12.85,12.85,0,0,1,438.93,949.87Z" fill="#8D5638"></path><path d="M613.76,758.16H559.55v.1H589a175.21,175.21,0,0,1-2.12,27.22q-1,6.57-2.57,12.88a116.51,116.51,0,0,1-14.71,34.22,92,92,0,0,1-6.61,9c-37.06,37-95.95,39-131.74-1.19A98.26,98.26,0,0,1,420.8,825a124.07,124.07,0,0,1-13.4-39.48q-1-6.57-1.58-13.39c-.35-4.54-.54-9.15-.54-13.82h29.47v-.1H380.53c.82,22.29-1.59,75.64-9.11,84.48l-4.16,213.48a13.27,13.27,0,0,0,13.27,13.27H619.47a13.27,13.27,0,0,0,13.27-13.27l-2.38-215.36C620.61,840.76,613.42,783.07,613.76,758.16Z" fill="#85c5e5"></path><polygon points="632.74 831.31 609.95 869.4 621.34 999.43 632.94 999.43 632.94 893.78 632.74 831.31" fill="#67B7D6"></polygon><path d="M380.53,1069.39H497.15c-109.2,0-100.91-231.14-129.89-231.14v217.87A13.27,13.27,0,0,0,380.53,1069.39Z" fill="#67B7D6"></path><path d="M361.26,860.4a63.71,63.71,0,0,1-.1-8.29q.19-4.15.71-8.31c.18-1.39.35-2.77.57-4.16s.44-2.77.78-4.16a27.84,27.84,0,0,1,3.44-8.35,27.54,27.54,0,0,1,3.73,8.22c.39,1.38.68,2.76.93,4.13s.5,2.76.72,4.14c.44,2.75.79,5.51,1,8.27a62,62,0,0,1,.21,8.29Z" fill="#592d3d"></path><path d="M632.74,869.4v8c.26,34,.26,69,0,102.76,0,2.87,0,5.72,0,8.53v67.41a13.27,13.27,0,0,1-13.27,13.27H380.53a13.27,13.27,0,0,1-13.27-13.27V998q0-3.76,0-7.65c-.25-34.86-.25-69.86,0-105.3V860.29" fill="none" stroke="#592d3d" stroke-miterlimit="10" stroke-width="12px"></path><path d="M626.76,869.38a65.79,65.79,0,0,1,.65-8.53q.57-4.25,1.46-8.47c.3-1.41.6-2.82.94-4.22s.69-2.81,1.15-4.21a29.21,29.21,0,0,1,4.18-8.28,28.9,28.9,0,0,1,3,8.78c.26,1.45.42,2.89.55,4.33s.25,2.88.35,4.31c.18,2.87.28,5.74.25,8.59a67.65,67.65,0,0,1-.54,8.54Z" fill="#592d3d"></path><path d="M368.1,833c21.58-5.27,12.43-74.73,12.43-74.73l233.23-.1s3.93,76.62,19.18,82.92" fill="none" stroke="#592d3d" stroke-miterlimit="10" stroke-width="12px"></path><path d="M589,758.26a175.22,175.22,0,0,1-2.11,27.22q-1,6.57-2.57,12.88a116.51,116.51,0,0,1-14.71,34.22,92,92,0,0,1-6.61,9c-37.06,37-95.95,39-131.74-1.19A98.26,98.26,0,0,1,420.8,825a124.07,124.07,0,0,1-13.4-39.48q-1-6.57-1.58-13.39c-.35-4.54-.54-9.15-.54-13.82" fill="none" stroke="#592d3d" stroke-miterlimit="10" stroke-width="12px"></path><g transform="translate(0 30)"></g><path d="M664.05,702.32c28.31-23,54.41-54.72,70.68-86.1-.06-.1-3.49,3.38-3.55,3.28S710.11,638.28,649.66,638c-76.3-.31-60.54-21.68-152.51-21.68-81.42,0-68.49,11.89-145.15,16.15-62.09,3.45-83.62-13-83.62-13l-.2.33a261.18,261.18,0,0,0,40.56,57.53c4.32,4.65,8.86,9.18,13.48,13.48a193.3,193.3,0,0,0,15.35,13c5.18,3.95,10.67,7.72,16.33,11.21,21.71,12,46.48,21.14,73.63,27.13,6.49,1.43,13,2.64,19.31,3.6,65.81,5.85,141.08,6.7,200.74-31.12C653.21,710.78,658.75,706.63,664.05,702.32Z" opacity="0.15"></path><circle cx="311.51" cy="659.14" r="4.18" fill="#592d3d"></circle><circle cx="338.51" cy="663.32" r="2.96" fill="#592d3d"></circle><circle cx="401.05" cy="707.98" r="2.96" fill="#592d3d"></circle><circle cx="506.83" cy="711.31" r="2.96" fill="#592d3d"></circle><circle cx="517.63" cy="704.5" r="2.96" fill="#592d3d"></circle><circle cx="578.33" cy="701.54" r="2.96" fill="#592d3d"></circle><circle cx="581.29" cy="683.15" r="2.96" fill="#592d3d"></circle><circle cx="391.69" cy="690.72" r="5.37" fill="#592d3d"></circle><circle cx="600.44" cy="707.45" r="2.09" fill="#592d3d"></circle><circle cx="642.96" cy="696.08" r="4.18" fill="#592d3d"></circle><circle cx="462.56" cy="724.04" r="4.18" fill="#592d3d"></circle><circle cx="642.96" cy="663.22" r="2.96" fill="#592d3d"></circle><circle cx="654.05" cy="673.06" r="2.96" fill="#592d3d"></circle><path d="M271.4,568.53c-1-28.36,18-52.36,43.28-63.56a62.37,62.37,0,0,1,8.16-2.7A70,70,0,0,1,365.05,505a71.67,71.67,0,0,1,8.93,4.16c29.53,15.89,42.79,53.25,31.36,83.46a61.68,61.68,0,0,1-4.18,8.82,54.68,54.68,0,0,1-17.51,20.83,69.25,69.25,0,0,1-7.85,5c-27.38,13-64.38,9-86.45-11.4a68.39,68.39,0,0,1-6.11-7.47,64.89,64.89,0,0,1-5.57-9.5A55.78,55.78,0,0,1,272,577.1,75.67,75.67,0,0,1,271.4,568.53Z" fill="#8D5638"></path><path d="M269.77,550.18c-1-28.36,18-52.36,43.28-63.56a62.23,62.23,0,0,1,8.15-2.7,70,70,0,0,1,42.22,2.68,71.54,71.54,0,0,1,8.92,4.16c29.53,15.89,42.79,53.26,31.36,83.46a59.6,59.6,0,0,1-4.18,8.82,63.85,63.85,0,0,1-4.71,7.8,64.78,64.78,0,0,1-5.68,7,63.08,63.08,0,0,1-7.12,6.07,68.37,68.37,0,0,1-7.85,5c-27.38,13-64.38,9-86.44-11.39a68.28,68.28,0,0,1-6.11-7.48,65,65,0,0,1-5.58-9.5,55.59,55.59,0,0,1-5.71-21.73A71.3,71.3,0,0,1,269.77,550.18Z" fill="#ffffff"></path><circle cx="338.51" cy="541.79" r="12.24" fill="#592d3d"></circle><path d="M399.52,583a59.6,59.6,0,0,0,4.18-8.82,62.5,62.5,0,0,0,2.57-8.64c-68.32-7.75-127,20.81-127,20.81l1.1,1.75c.41.62.82,1.24,1.25,1.84a68.28,68.28,0,0,0,6.11,7.48c22.06,20.36,59.06,24.36,86.44,11.39a68.37,68.37,0,0,0,7.85-5,63.08,63.08,0,0,0,7.12-6.07,64.78,64.78,0,0,0,5.68-7A63.85,63.85,0,0,0,399.52,583Z" fill="#A56941" stroke="#592d3d" stroke-miterlimit="10" stroke-width="6px"></path><path d="M269.77,550.18c-1-28.36,18-52.36,43.28-63.56a62.23,62.23,0,0,1,8.15-2.7,70,70,0,0,1,42.22,2.68,71.54,71.54,0,0,1,8.92,4.16c29.53,15.89,42.79,53.26,31.36,83.46a59.6,59.6,0,0,1-4.18,8.82,63.85,63.85,0,0,1-4.71,7.8,64.78,64.78,0,0,1-5.68,7,63.08,63.08,0,0,1-7.12,6.07,68.37,68.37,0,0,1-7.85,5c-27.38,13-64.38,9-86.44-11.39a68.28,68.28,0,0,1-6.11-7.48,65,65,0,0,1-5.58-9.5,55.59,55.59,0,0,1-5.71-21.73A71.3,71.3,0,0,1,269.77,550.18Z" stroke="#592d3d" stroke-miterlimit="10" fill="none" stroke-width="12px"></path><path d="M583.89,560.47c.43-15.13,6.67-30.09,15.1-41.33a72.82,72.82,0,0,1,7.12-8.53,69.73,69.73,0,0,1,90.17-8.95,73.27,73.27,0,0,1,6.53,5.13c27,21.45,30.12,63.14,15.32,93.23a62.31,62.31,0,0,1-4.78,6.86,72.09,72.09,0,0,1-7.58,8.13c-20.27,17.83-51.81,22.13-77.41,12.42a71.34,71.34,0,0,1-10.55-5c-17.9-10.78-30.37-31.09-33.43-52.23A62.93,62.93,0,0,1,583.89,560.47Z" fill="#A56941"></path><path d="M589.38,549c.42-14.15,6.42-28.15,14.52-38.66a70.56,70.56,0,0,1,6.86-8A68.55,68.55,0,0,1,697.53,494a69.81,69.81,0,0,1,6.28,4.79c26,20.07,29,59.07,14.74,87.22a56.5,56.5,0,0,1-4.6,6.42,68.91,68.91,0,0,1-7.29,7.6c-19.51,16.68-49.86,20.71-74.49,11.62A68.79,68.79,0,0,1,622,606.9c-17.22-10.08-29.22-29.08-32.17-48.85A56.34,56.34,0,0,1,589.38,549Z" stroke="#592d3d" fill="#ffffff" stroke-miterlimit="10" stroke-width="12px"></path><circle cx="659.21" cy="550.79" r="12.24" fill="#592d3d"></circle><path d="M718.86,618.11c-10.23,5-20.32,9.55-31.34,12.69a97.34,97.34,0,0,1-16.46,3.3,141.1,141.1,0,0,1-17.69.3A144.2,144.2,0,0,1,633,632.48c-1.93-.31-4.13.51-4.62,2.62-.41,1.81.55,4.28,2.62,4.62a164.26,164.26,0,0,0,19.66,2.1c3.19.13,6.37.06,9.56.16a78.25,78.25,0,0,0,9.06-.21c12-1,23.62-4.28,34.76-8.76,6.32-2.55,12.52-5.4,18.63-8.42a3.77,3.77,0,0,0,1.34-5.13,3.83,3.83,0,0,0-5.13-1.35Z" fill="#592d3d"></path><path d="M365.31,627.42c-11.37,2.16-22.4,3.8-34.06,3.83a95.68,95.68,0,0,1-17-1.36,171.78,171.78,0,0,1-35.56-11.64,3.85,3.85,0,0,0-5.13,1.35c-.95,1.62-.5,4.27,1.34,5.13a164.42,164.42,0,0,0,17.87,7.1c2.91,1,5.87,1.7,8.78,2.6a91.22,91.22,0,0,0,8.91,2.35c11.95,2.42,24.22,2.37,36.31,1,6.88-.76,13.71-1.88,20.51-3.17,2-.37,3.12-2.77,2.62-4.61a3.83,3.83,0,0,0-4.62-2.62Z" fill="#592d3d"></path><path d="M463.75,593.17c15.55,0,25.12,12.76,36.49,12.76s25.91-12.76,41.27-12.76,23.72,11.12,23.72,26.52c0,16.65-16.75,46-62.6,46s-65.4-27.74-65.4-45.45C437.23,603.89,448.2,593.17,463.75,593.17Z" fill="#ffffff" stroke="#592d3d" stroke-miterlimit="10" stroke-width="12px"></path><line x1="477.85" y1="596.6" x2="477.85" y2="662.1" fill="none" stroke="#592d3d" stroke-miterlimit="10" stroke-width="12px"></line><line x1="526.99" y1="596.6" x2="526.99" y2="662.1" fill="none" stroke="#592d3d" stroke-miterlimit="10" stroke-width="12px"></line><path d="M558.73,399.34c-12.86,24-60,37.44-63.83,31.42-4.29-6.73,37.85-55.32,13.9-106.14" fill="#8D5638"></path><path d="M784,342.85c-5.1-5.1-31.06,1.83-57.19-.23A281,281,0,0,0,505.63,228.28c-2.44-20.48-.75-37.68-2.61-40.1-2.49-3.22-15.49,12.68-18.87,31-11.91-15-32.14-23-32.72-18.8-.38,2.68,7.44,14.09,14.81,29.9-111.6,13.47-203.08,92.26-235.08,197-13.86,11.92-26.86,20.34-27,25.69-.27,9.92,39.31,9.36,56.58,7.82v-.06c60.65-2,179-13.78,236.42-72.89C491.64,406.93,481.47,421,483.43,424c3,4.67,38.32-5.19,50.07-23.24,48,19.59,139.49,43.16,219-16.16l-.22-.43C766.77,372.06,790.35,349.25,784,342.85Z" fill="#592d3d"></path><path d="M726.85,348.62c-5.4.24-10.66.11-16-.14s-10.59-.67-15.87-1.26c-2.64-.29-5.28-.6-7.91-1s-5.27-.72-7.89-1.23a76.91,76.91,0,0,1-15.58-4.54,91.87,91.87,0,0,1,16-2.62c2.63-.22,5.26-.37,7.89-.48l7.88-.34c5.25-.22,10.49-.34,15.72-.45s10.48-.12,15.62,0Z" fill="#592d3d"></path><path d="M236.6,430s0,.24,0,.39l-.12.53-.28,1.11c-.21.75-.43,1.52-.66,2.29-.47,1.55-1,3.14-1.54,4.75s-1.06,3.28-1.77,5a20.6,20.6,0,0,1-1.38,2.6,17.91,17.91,0,0,1-2.07,2.77,13.14,13.14,0,0,1-3.72-5.47,16.11,16.11,0,0,1-.76-2.9c-.21-1-.31-2-.43-2.95a30,30,0,0,1,0-6,24.44,24.44,0,0,1,.48-3c.12-.5.25-1,.41-1.51a7.84,7.84,0,0,1,.27-.77c.1-.28.18-.48.36-.9Z" fill="#592d3d"></path><path d="M260.74,460.82v-.06c17-.56,38.63-1.9,62.14-4.84,2.63-55.92,22-121.58,65.92-198.44h0L382,254.23A282.15,282.15,0,0,0,231.16,427.31c-13.86,11.92-26.86,20.34-27,25.69C203.89,462.92,243.47,462.36,260.74,460.82Z" fill="#592d3d"></path><path d="M784,342.85c-5.1-5.1-31.06,1.83-57.19-.23A281,281,0,0,0,505.63,228.28c-2.44-20.48-.75-37.68-2.61-40.1-2.49-3.22-15.49,12.68-18.87,31-11.91-15-32.14-23-32.72-18.8-.38,2.68,7.44,14.09,14.81,29.9-111.6,13.47-203.08,92.26-235.08,197-13.86,11.92-26.86,20.34-27,25.69-.27,9.92,39.31,9.36,56.58,7.82v-.06c60.65-2,179-13.78,236.42-72.89C491.64,406.93,481.47,421,483.43,424c3,4.67,38.32-5.19,50.07-23.24,48,19.59,139.49,43.16,219-16.16l-.22-.43C766.77,372.06,790.35,349.25,784,342.85Z" fill="none" stroke="#592d3d" stroke-miterlimit="10" stroke-width="12px"></path><path d="M505.93,244.31a367.42,367.42,0,0,0-42.48,4.94c-3.48.67-6.95,1.41-10.44,2.05s-6.9,1.61-10.35,2.41l-10.26,2.72c-3.4,1-6.77,2.08-10.15,3.12a314.12,314.12,0,0,0-39.43,15.73,348.31,348.31,0,0,0-37.25,21,183.85,183.85,0,0,1,35.08-25.14,219.23,219.23,0,0,1,39.76-17.29c3.48-1,6.94-2.09,10.42-3.05s7-1.82,10.55-2.6,7.1-1.4,10.66-2,7.15-1.07,10.73-1.52A190,190,0,0,1,505.93,244.31Z" fill="#ffffff"></path><path d="M255.06,519.62l13-4.4,31.2-10.54,37.6-12.7,32.49-11c5.27-1.78,10.55-3.51,15.8-5.34l.23-.07a10.6,10.6,0,0,0,6-4.6,10,10,0,0,0-3.58-13.68,10,10,0,0,0-7.71-1l-13,4.39-31.2,10.54-37.6,12.71-32.49,11c-5.27,1.78-10.55,3.52-15.8,5.34l-.23.08a10.6,10.6,0,0,0-6,4.6,10,10,0,0,0,3.58,13.68,10,10,0,0,0,7.71,1Z" fill="#592d3d"></path><path d="M617.56,475l12.73,5.13,30.54,12.31,36.81,14.84,31.81,12.83c5.15,2.07,10.26,4.3,15.47,6.24l.22.08c2.25.91,5.71.16,7.71-1a10,10,0,0,0,3.58-13.69l-1.56-2a10,10,0,0,0-4.41-2.57L737.73,502l-30.54-12.32-36.81-14.84L638.57,462c-5.15-2.08-10.26-4.31-15.47-6.24l-.22-.09c-2.25-.91-5.71-.16-7.71,1a10,10,0,0,0-3.58,13.68l1.56,2a10.07,10.07,0,0,0,4.41,2.58Z" fill="#592d3d"></path><g transform="scale(1)" style="transform-origin: center center;"><circle cx="491.44" cy="157.14" r="47.48" fill="#D67070"></circle><path d="M491.44,204.62a47.47,47.47,0,0,0,46.46-57.31c-30.78-4.77-62.7-2-93.77,6-.1,1.26-.17,2.53-.17,3.82A47.48,47.48,0,0,0,491.44,204.62Z" fill="#C46565"></path><circle cx="491.44" cy="157.14" r="47.48" fill="none" stroke="#592d3d" stroke-miterlimit="10" stroke-width="12px"></circle><path d="M240.26,423.13a254.67,254.67,0,0,1,6.54-57.5q1.29-5.55,2.81-11c2.9-32.3,20-58.94,42.86-82.73,4.76-3.81,5.71-12.37,10.47-17.13,16.18-14.27,30.45-28.55,48.53-40,74.22-47.58,172.23-73.27,251.21-29.5,16.17,8.56,34.25,13.32,47.57,24.74,25.7,21.88,43.77,47.58,69.47,68.51,22.83,19,26.64,49.48,34.74,76.07q1.53,5.44,2.81,11a254.67,254.67,0,0,1,6.54,57.5Z" fill="#D67070"></path><path d="M246.8,365.63a254.67,254.67,0,0,0-6.54,57.5h83C321.7,342.47,301,275.11,406,193,330.68,221.59,262.05,284.38,246.8,365.63Z" fill="#C46565"></path><path d="M258.18,321.12a109.41,109.41,0,0,0-8.57,33.51q-1.52,5.44-2.81,11a254.67,254.67,0,0,0-6.54,57.5H440.31a827.17,827.17,0,0,1,127.59,0H763.81a254.67,254.67,0,0,0-6.54-57.5q-1.29-5.55-2.81-11c-3.46-11.37-6.15-23.44-9.86-35C582.71,259.73,419,261,258.18,321.12Z" fill="#C46565"></path><path d="M240.26,423.13a254.67,254.67,0,0,1,6.54-57.5q1.29-5.55,2.81-11c2.9-32.3,20-58.94,42.86-82.73,4.76-3.81,5.71-12.37,10.47-17.13,16.18-14.27,30.45-28.55,48.53-40,74.22-47.58,172.23-73.27,251.21-29.5,16.17,8.56,34.25,13.32,47.57,24.74,25.7,21.88,43.77,47.58,69.47,68.51,22.83,19,26.64,49.48,34.74,76.07q1.53,5.44,2.81,11a254.67,254.67,0,0,1,6.54,57.5Z" fill="none" stroke="#592d3d" stroke-miterlimit="10" stroke-width="12px"></path><path d="M225.35,356.43c183.42-78,371.14-79.06,555.94,0,17.53,7.5,17.43,139.87,0,133.81-180.47-62.83-371.33-63.5-555.94,0C203.39,497.79,205.53,364.86,225.35,356.43Z" fill="#D67070"></path><path d="M751.33,443.71a43.58,43.58,0,0,1,1.35,9.9c.09,3.27-.11,6.52-.26,9.78l-.36,4.87c-.16,1.62-.32,3.24-.52,4.85-.4,3.23-.89,6.44-1.59,9.61l-7.87-1.41c.44-3.17,1-6.31,1.64-9.45l1-4.71,1-4.7c.74-3.13,1.37-6.27,2.22-9.4A53.94,53.94,0,0,1,751.33,443.71Z" fill="#592d3d"></path><path d="M749.91,342.47a175.32,175.32,0,0,1,3.63,19c.43,3.19.78,6.39,1.09,9.59s.49,6.42.66,9.63c.26,6.42.37,12.84.06,19.25a114.35,114.35,0,0,1-2.45,19.11c-1-6.39-1.67-12.7-2.32-19s-1.21-12.55-2.05-18.78c-.39-3.12-.83-6.22-1.3-9.32s-1-6.19-1.52-9.27c-1.07-6.17-2.3-12.29-3.59-18.41Z" fill="#592d3d"></path><path d="M668.78,322c7.56,42.87,6.71,89.49,0,138.73" fill="none" stroke="#592d3d" stroke-miterlimit="10" stroke-width="8px"></path><path d="M598.19,307.61c5.15,42.9,4.57,89.55,0,138.83" fill="none" stroke="#592d3d" stroke-miterlimit="10" stroke-width="8px"></path><path d="M533.85,356.47a172.75,172.75,0,0,1,2.37,20.68c.4,6.9.52,13.8.65,20.71l0,10.36c0,3.45,0,6.9-.12,10.35-.15,6.9-.4,13.8-.87,20.69l-8-.4c.22-6.87.57-13.73.94-20.59l1.21-20.57c.46-6.86.82-13.73,1.35-20.6S532.69,363.36,533.85,356.47Z" fill="#592d3d"></path><path d="M535.93,299.88a58.54,58.54,0,0,1,.28,6.35c0,1.06-.05,2.12-.08,3.18L536,312.6c-.17,2.12-.32,4.25-.68,6.38a22.42,22.42,0,0,1-2.08,6.41,23.29,23.29,0,0,1-2.7-6.21c-.57-2.08-.93-4.16-1.31-6.25l-.49-3.12c-.13-1.05-.28-2.09-.39-3.13a55,55,0,0,1-.35-6.29Z" fill="#592d3d"></path><path d="M467.76,299.65c.35,43,.31,89.67,0,139" fill="none" stroke="#592d3d" stroke-miterlimit="10" stroke-width="8px"></path><path d="M403.38,306.18c-2.06,43-1.83,89.73,0,139.11" fill="none" stroke="#592d3d" stroke-miterlimit="10" stroke-width="8px"></path><path d="M333.37,391.65a161.31,161.31,0,0,1,2.71,16.78c.63,5.59,1.09,11.17,1.65,16.75l1.51,16.73c.47,5.57.93,11.15,1.25,16.74l-8,.64c-.58-5.61-.93-11.24-1.18-16.87-.13-2.82-.2-5.64-.28-8.46l-.1-8.46c0-5.64.05-11.29.35-16.93A117.52,117.52,0,0,1,333.37,391.65Z" fill="#592d3d"></path><path d="M340.48,320.18c-.25,3.65-.64,7.28-1.05,10.91l-.66,5.45-.72,5.45c-.54,3.64-.95,7.28-1.6,10.93a67.39,67.39,0,0,1-2.8,10.92,55.71,55.71,0,0,1-2-11.14c-.3-3.72-.32-7.42-.38-11.14l0-5.56c.06-1.86.11-3.71.2-5.56.2-3.71.49-7.41,1-11.09Z" fill="#592d3d"></path><path d="M264.86,340.45c-6.86,43-6.09,89.85,0,139.3" fill="none" stroke="#592d3d" stroke-miterlimit="10" stroke-width="8px"></path><path d="M753.07,434.58a3.75,3.75,0,1,0-3.75-3.75,3.8,3.8,0,0,0,3.75,3.75Z" fill="#592d3d"></path><path d="M758.28,341.38c10,42.84,8.85,89.43,0,138.64" fill="none" stroke="#C46565" stroke-miterlimit="10" stroke-width="8px"></path><path d="M681,320c7.56,42.87,6.71,89.49,0,138.74" fill="none" stroke="#C46565" stroke-miterlimit="10" stroke-width="8px"></path><path d="M610.38,305.45c5.15,42.9,4.57,89.55,0,138.83" fill="none" stroke="#C46565" stroke-miterlimit="10" stroke-width="8px"></path><path d="M544.06,297.82c2.74,42.92,2.44,89.61,0,138.92" fill="none" stroke="#C46565" stroke-miterlimit="10" stroke-width="8px"></path><path d="M479.8,297.16c.34,42.95.31,89.67,0,139" fill="none" stroke="#C46565" stroke-miterlimit="10" stroke-width="8px"></path><path d="M415.34,303.53c-2.06,43-1.83,89.73,0,139.11" fill="none" stroke="#C46565" stroke-miterlimit="10" stroke-width="8px"></path><path d="M348.41,317c-4.46,43-4,89.79,0,139.21" fill="none" stroke="#C46565" stroke-miterlimit="10" stroke-width="8px"></path><path d="M276.74,337.64c-6.86,43-6.09,89.85,0,139.3" fill="none" stroke="#C46565" stroke-miterlimit="10" stroke-width="8px"></path><path d="M225.35,356.43c183.42-78,371.14-79.06,555.94,0,17.53,7.5,17.43,139.87,0,133.81-180.47-62.83-371.33-63.5-555.94,0C203.39,497.79,205.53,364.86,225.35,356.43Z" fill="none" stroke="#592d3d" stroke-miterlimit="10" stroke-width="12px"></path><path d="M426.76,283.72A328.8,328.8,0,0,1,465.37,278c3.25-.28,6.49-.56,9.74-.78l9.75-.56c3.26-.14,6.51-.2,9.77-.3l9.77-.13c13,0,26.05.63,39,1.84a324.4,324.4,0,0,1,38.6,5.8c-13-.29-26-.79-38.88-1.13s-25.84-.49-38.75-.52h-9.68c-3.23,0-6.46.12-9.69.11l-9.68.14c-3.23.11-6.46.16-9.7.2C452.72,283,439.78,283.46,426.76,283.72Z" fill="#592d3d"></path><path d="M347.31,233.83a183.71,183.71,0,0,1,22.38-15.33c7.78-4.62,15.81-8.84,24-12.66,2-1,4.13-1.86,6.2-2.78s4.13-1.86,6.24-2.67c4.22-1.65,8.4-3.38,12.7-4.8a217,217,0,0,1,26.06-7.5c-2.07.91-4.16,1.78-6.25,2.63s-4.19,1.64-6.25,2.56c-4.15,1.74-8.31,3.42-12.43,5.22l-3.09,1.33c-1,.43-2.08.85-3.1,1.32l-6.15,2.73c-2.06.88-4.09,1.83-6.14,2.75s-4.09,1.84-6.1,2.83l-6.1,2.83c-2,1-4,2-6.05,3-4,1.94-8,4-12.05,6C363.19,225.31,355.23,229.48,347.31,233.83Z" fill="#ffffff"></path></g></g></svg>